/* XPM */
static char *_5479897e0cd49b7b00ed8a41b852d7aBq7JaIRpYrbgCxUt[] = {
/* columns rows colors chars-per-pixel */
"64 64 20 1 ",
"  c #8F071D",
". c #8E081D",
"X c #90071D",
"o c #960D22",
"O c #970F24",
"+ c #951024",
"@ c #A83140",
"# c #AA3745",
"$ c #A93845",
"% c #BE3345",
"& c #C3394A",
"* c #CA4E5B",
"= c #EF6271",
"- c #EE7983",
"; c #F18B97",
": c #F18C97",
"> c #FB8992",
", c #F7919C",
"< c #FF9EA7",
"1 c #FF9FA8",
/* pixels */
">>>>1111111111111111111>>>>>> >>>>>O>>>>>>1111111111111111111X>>",
">>>>1111111111111111111>>>>>> >>>>>O>>>>>>1111111111111111111X>>",
">>>>1111111111111111111>>>>>> >>>>>O>>>>>>1111111111111111111X>>",
">>>>1111111111111111111>>>>>> >>>>>O>>>>>>1111111111111111111X>>",
"............................. .....X...... ..................X..",
"11111111111111>>>>>>>>>>>>>>>>>>>1111111111111111111>>>>>>>>>>>>",
"11111111111111>>>>>>>>>>>>>>>>>>>1111111111111111111>>>>>>>>>>>>",
"11111111111111>>>>>>>>>>>>>>>>>>>1111111111111111111>>>>>>>>>>>>",
"11111111111111>>>>>>>>>>>>>>>>>>>1111111111111111111>>>>>>>>>>>>",
"11111111111111>>>>>>>>>>>>>>>>>>>111.111111111111111>>>>X>>>>>>>",
"11111111111111>>>>>>>>>>>>>>>>>>>111.111111111111111>>>>X>>>>>>>",
"11111111111111>>>>>>>>>>>>>>>>>>>111.111111111111111>>>>X>>>>>>>",
";;;;;;;;;;;;;;-------------------;;;.;;;;;;;;:;;;:;;---- -------",
"############################################################# ##",
">>>>1111111111111111111>>>>>>>>>>>>>>>>>>>1111111111111111111X>>",
">>>>1111111111111111111>>>>>>>>>>>>>>>>>>>1111111111111111111X>>",
">>>>1111111111111111111>>>>>>>>>>>>>>>>>>>1111111111111111111X>>",
">>>>1111111111111111111>>>>>>>>>>>>>>>>>>>1111111111111111111X>>",
">>>>11111111111111,1111>>>>>>>>>>>>>>>>>>>11111111111111111X1X>-",
">>>>11111111111111,1111>>>>>>>>>>>>>>>>>>>11111111111111111X1X>-",
">>>>11111111111111,1111>>>>>>>>>>>>>>>>>>>11111111111111111X1X>-",
"&&&&&&&&&&&&&&&&&&%&&&&&&&&&&&&&&&&&&&&&&&&&&&&&&&&&&&&&&&&.&.&%",
"################################################################",
"11111111111111>>>>>>>>>>>>>>>>>>>1111111111111111111>>>>>>>>>>>>",
"11111111111111>>>>>>>>>>>>>>>>>>>1111111111111111111>>>>>>>>>>>>",
"11111111111111>>>>>>>>>>>>>>>>>>>1111111111111111111>>>>>>>>>>>>",
"11111111111111>>>>>>>>>>>>>>>>>>>1111111111111111111>>>>>>>>>>>>",
"111111 1111111>>>>>>>>>>>>>>>*>>>1111111111111111111>>>>>>>>>>>>",
"111111 1111111>>>>>>>>>>>>>>>*>>>1111111111111111111>>>>>>>>>>>>",
"111111 1111111>>>>>>>>>>>>>>>*>>>1111111111111111111>>>>>>>>>>>>",
"====== ======================&==================================",
"$$$$$$$$$$$$$$$$$$$$$$$$$$$$$$$$$$$$$$$$$$$$$$$$$$$$$$$$$$$$$.$$",
">>>>1111111111111111111>>>>>>>>>>>>>>>>>>>1111111111111111111X>>",
">>>>1111111111111111111>>>>>>>>>>>>>>>>>>>1111111111111111111X>>",
">>>>1111111111111111111>>>>>>>>>>>>>>>>>>>1111111111111111111X>>",
">>>>1111111111111111111>>>>>> >>>>>+>>>>>>1111111111111111111X>>",
">>>>1111111111111111111>>>>>> >>>>>O>>>>>>111111111111111111<X>>",
">>>>1111111111111111111>>>>>> >>>>>O>>>>>>1111111111111111111X>>",
">>>>1111111111111111111>>>>>> >>>>>O>>>>>>1111111111111111111X>>",
"=============================.=====o=========================X==",
"@@@@@@@@@@@@@@@@@@@@@@@@@@@@@@@@@@@@@@@@@@@@@@@@@@@@@@@@@@@@@@@@",
"11111111111111>>>>>>>>>>>>>>>>>>>1111111111111111111>>>>>>>>>>>>",
"11111111111111>>>>>>>>>>>>>>>>>>>1111111111111111111>>>>>>>>>>>>",
"11111111111111>>>>>>>>>>>>>>>>>>>1111111111111111111>>>>>>>>>>>>",
"11111111111111>>>>>>>>>>>>>>>>>>>111.111111111111111>>>>X>>>>>>>",
"11111111111111>>>>>>>>>>>>>>>>>>>111.111111111111111>>>>X>>>>>>>",
"11111111111111>>>>>>>>>>>>>>>>>>>111.111111111111111>>>>X>>>>>>>",
"11111111111111>>>>>>>>>>>>>>>>>>>111.111111111111111>>>>X>>>>>>>",
"==================================== =================== =======",
">>>>1111111111111111111>>>>>>>>>>>>>>>>>>>1111111111111111111 >>",
">>>>1111111111111111111>>>>>>>>>>>>>>>>>>>1111111111111111111X>>",
">>>>1111111111111111111>>>>>>>>>>>>>>>>>>>1111111111111111111X>>",
">>>>1111111111111111111>>>>>>>>>>>>>>>>>>>1111111111111111111X>>",
">>>>11111111111111,1111>>>>>>>>>>>>>>>>>>>11111111111111111X1X>-",
">>>>11111111111111,1111>>>>>>>>>>>>>>>>>>>11111111111111111X1X>-",
">>>>11111111111111,1111>>>>>>>>>>>>>>>>>>>11111111111111111X1X>-",
">>>>11111111111111,1111>>>>>>>>>>>>>>>>>>>11111111111111111X1X>-",
".................. .............................. ..............",
"11111111111111>>>>>>>>>>>>>>>>>>>1111111111111111111>>>>>>>>>>>>",
"11111111111111>>>>>>>>>>>>>>>>>>>1111111111111111111>>>>>>>>>>>>",
"11111111111111>>>>>>>>>>>>>>>>>>>1111111111111111111>>>>>>>>>>>>",
"11111111111111>>>>>>>>>>>>>>>>>>>1111111111111111111>>>>>>>>>>>>",
"111111 1111111>>>>>>>>>>>>>>>*>>>1111111111111111111>>>>>>>>>>>>",
"111111 1111111>>>>>>>>>>>>>>>*>>>1111111111111111111>>>>>>>>>>>>"
};
