/* XPM */
static char *_852ad8946604388cd7bb2be16e8e0433XmNacVKmv4ULdDT[] = {
/* columns rows colors chars-per-pixel */
"64 64 88 1 ",
"  c #1D242E",
". c #1E2533",
"X c #1E253C",
"o c #202734",
"O c #232A36",
"+ c #20273E",
"@ c #252C3B",
"# c #282F3C",
"$ c #29313E",
"% c #1F2740",
"& c #202741",
"* c #232B44",
"= c #282F41",
"- c #252D4A",
"; c #282F4B",
": c #273046",
"> c #2B3343",
", c #27304C",
"< c #2A334C",
"1 c #2F384D",
"2 c #303645",
"3 c #303846",
"4 c #30374C",
"5 c #313A4D",
"6 c #273151",
"7 c #2C3553",
"8 c #2F3956",
"9 c #2B3759",
"0 c #2E3A5A",
"q c #323B55",
"w c #383F52",
"e c #333D5A",
"r c #323E61",
"t c #364057",
"y c #3A4255",
"u c #36415D",
"i c #3A445D",
"p c #3E495F",
"a c #364262",
"s c #3A4562",
"d c #3E4965",
"f c #37456A",
"g c #3A4668",
"h c #3D4A6B",
"j c #3F4D69",
"k c #3F4C70",
"l c #40475D",
"z c #41495E",
"x c #404A63",
"c c #404B63",
"v c #434C63",
"b c #404B64",
"n c #404B67",
"m c #414C65",
"M c #424E68",
"N c #444F6B",
"B c #414F6D",
"V c #475066",
"C c #495166",
"Z c #42506B",
"A c #44506B",
"S c #43506E",
"D c #45526E",
"F c #47546F",
"G c #4C556A",
"H c #49566E",
"J c #4A586F",
"K c #4F586D",
"L c #50576A",
"P c #515A6E",
"I c #414E71",
"U c #455370",
"Y c #475571",
"T c #485572",
"R c #495774",
"E c #4B5971",
"W c #4B5A75",
"Q c #4C5A74",
"! c #4E5C76",
"~ c #4F5E78",
"^ c #535D72",
"/ c #505F79",
"( c #576074",
") c #596376",
"_ c #52617A",
"` c #55637D",
"' c #54647E",
"] c #596379",
/* pixels */
"$tidmmmMMbbccddddit5@@qttwq555>155wtw5<55e#pHEHEJJHHHFAAmmcit5>@",
"wusdjjMBddsueus0isieq>8898eeueu8800e097ee,-djjSZFYFFFFYFDZMdsuee",
"tRFYTTTTFDFFDDDNMedd7<eeeeuauissiiiuaeueue<Q'/_`'__~!!~QTDDMmdsq",
"uDDYDDDDDDDDDNMMMbMM9<8eeeeeeuuuauttuaeeue-E/_____/~!!EEFDMMdds7",
"eDUADDAMMSZDMMMBbddde-997qeeeeeeeeeeeeeeee-Q!////!!QQETFDDMjdsq<",
"eMMMNSMMMMddsdiidsdse#7998880e8eee8qeqq888=EQQE!!QQQWTTDDSmdwq7O",
"8mMMMddsssdiiiiituuiu#6769799799e888e9099e=TEEFEEFETWZDDMdwq<qMp",
"<dssiiissiiutteeeeeqq@6--***--;77999988779#DFYTFAmdmDZMitq<5uddq",
"<uuituitteuqeeqqqqe87#-&&&&*&**-;;;,07,,,,@tiiiitttttwqtq#8esss8",
"@eeteeueqqqqqqeqq77<-@-&&&&&&&&;----;;,;,*@ettwtwqwwq880@78eq88<",
"$##=#=#>#@OO@#O@#OO@>#OOO@O@@OOOOOOO@@OO@@#@@OOOO@####:OOOO@OOO#",
"876666799e<>aadMbMsdhMMMMmddseawdMjMjjdddssssashdssii>e80eeueeee",
"eeeeeeee9-77eusseaMMDMMdsue09677uajTEEETETDDMMdddaue8<eeeeeeeqee",
"eeeee89997-9uuusddddMdmMdddsssu7uMFTYYDYDDZjMddsguee9#8eeeeeeeee",
"e808907077=7eeeuisssddsddsssiue,uMDDDDZZZSMdsdssauee7@79988qqqq8",
"0099997997=90eeeausgsssssisueee=dBSSMMMMMjdhddiuuee9,#9677999999",
"979,67779,#7998eeeeeaauuueeaeeq@ddbMMjdmdsshssuuee7,-#6677997776",
";;,,,,,,--=,77998eeeeeeeuee9777@issdsddjdsgsueee7<,,-@,,66666,,,",
";;;-,**-**@,,7779998888e0787<<<=etutsddssgaauee7,,;;*@-;*;,;;;;;",
"********&-@;;,7,,,77799<,,,,,,<@8aqeueee8q888<<,,;;-o@**-;;*****",
"******--*O>X;;;,;,,;;,;;;;;*--*@:eqe7q8877,96,,--;--@O--*****-**",
"#><>>>><>><>Oo .qq5>   OOOO####>>OO  . ..O   .oOOO#@>>>>>$#@OOOO",
"e89890000776,,e>78ee8$7;--;--;6---6eeq<:#@Oseeeeqeeeeeee876eeq<$",
"7sddddMjbdbMMde7>7eue@qeuueuesiueee9;9q97q@euuuuauaaiiuee997,67:",
"7sdhsddsMdshddbs;>6,<@qeeeeeeeaeeeeee8-;*;#eeeeuueueuueqeeeeeq;;",
"7issssdiddsssssss,:*&@eueeueqeeeeeeqee976;#8q8eeeeeeeeeeeqe88q7&",
";eauuississdhsssss7;O#qqqqqqeeqqeeeq777777=;e88eqeee8eqq8q87q88-",
"-<7eauusiissseq<<<tu;#eqeqqeqeqq7<7<<,,,,6#*-778999999897878897*",
"#,<<qauuieq<<<<<<<<<q#8qq88877<<<<7,<,;,,,=*&&&;9969979997777<<-",
"@;<,<<8<<<<<<<<<<<:::@<,<<<77,7<<,-,,;;;,;#*&X+&&&&-<6777777,6;+",
"#-<<<<<<<<<<<<::<<<-:><<<<<;;;6--;-;;;-;-*#-*X+&+++++&&&*---&&-@",
"@O;*-,;;--;,-=-*=*--+O&&&+X&XX.....XX++&&&OoO+&&&*&&&&&&&*&+++.$",
"P(PPPPLGl$@ae8eeuaiiiitiw5>#@@@@3CvCvGGCCCCCVvvzzzz5@@CLLLGPPP^P",
"PPPPPKGGCC:7adbmMDDmMMddue7eeee<yivCCCCCCAvvvziiitww52vGGGGGPPPP",
"^^^^^P^PPv:isdbbMMSMMAAMNDDMa0-<wvCVVGGCCCHCCVvvvccsq3GGPGPP^P^^",
"P^^P^P^KGC-sshssbbMMMMDMNDbBMbd-tvvVCCCvvvVvvvvcbiiie>CGGGGKP^KP",
"KPPGG^GGGC=ssssssbbddMMDNMBbMdh-ivcvvvvcvcvvczccitttw>CCCGGCGGKK",
"GGGGKGGGCz=ssssssddsdddbbbbdddd+qiccmmccccccciiiittqq>vCVCCGGCGG",
"GGCVvzzlzz>assssssdddbjddhsddsd@55ww55tliiiistitiuwwq>cvCvCCCCCC",
"vllpppppzy>eassssssiitwtwwdsdss@<<454555tiiitweetqq<->pivvvvcvVC",
"ppyypyyyiy>qqqwqqqqqqqqeqqqtssu@:::<<<<<<<eewqqq7<<-*>pytpzvzzpp",
"yypywyywqq>,qqqqqqqq<qq55qq5q58@*&;<<:::::=<::<---**.@qwyqqyyyyy",
"#:1<<>#@#@$...X++&*&&&&&&;&++X.##@@o......oo#==>=@OO#O@O@@@>@@#@",
"<arafaffgghggggggggg<1sg8eeaeuuiissue977qe>q99789eeueeq899q87<<@",
"0raaaaafggggar0099990q8asssishusaiuueee88-<8eeeeeqee8eee7;----;-",
"8ghhhhhIBhIIBIBhhhhh977usuuisisaetaee9q776-98qeqeeeeeeeeeeqqeee-",
"7ggghhhhhhhhhhhhhkhha,ueeuuausuueeeee79666;7797888qee9q8qqqqqqq;",
"7ggggghhhhhhhhhhhggge,eeeeeeeeeeeeq877766,;-77799999999798qee8e-",
"-aaggggghshgggggggaae;eqeeeeq88889007,66,;;&&&;,677777777977887*",
"=uaaaaaggggaeeqq8eagr-780e98999,,,***-,-;6;&&&&&&;,77777<77777*&",
"#eeuuaeq8887777777797#-,;,-*&***;-*&*&&;;;;%XX+XX&+&,7777777,&**",
"@ee<7<77<<<<<<<<,,<7@@&&*&&&&*&&***&&&&XX&*XXXXXXXXX+X+++&&++&;@",
"#-6,;,,,6,<,,,,;;,7,#@*&*;--*--**&*-**&XXXX&XXXXXXXXXXXXXX&***&@",
"itwwqq5<>OO@>>>>53>>$@.$>$>>>>@OO>@@OOOOO #>>>>>>>>>>O@><55qqtti",
"e88899666e$GGGEGCGGGCP^PPGPGGGC28asuueq88sueeee8e8eea<e677988e8e",
"eeeeee897-<^))])^)(^^KCVvvcpzip5issgq77<97ussissddddd<6eeeeeeeeu",
"ee8qe89976;^(((]((^^^PPPKGCCCVv>78877<,68euuiusssssss<998eeeeeee",
"8899799766<K^^(^^^^^PPGKGCCvVvz$==**-67eeeeeuuuiiiiii-7799978888",
"89,7,6,66,=GLPPPP^PKPGGGCCCvvvz>;6-667998eeeeee8eq8qq,7777779997",
"6766,,,,,-=GGKGGGGGGGGCCCVvvczl<;-,-667098887777<7787=,6,7666,66",
",,-;;;--;;#zGGGCGGGCCCCvvvzzzii>;;--,666776,,,<,,<<<<#;,,,,,,,6,",
"*-****&**&>ypCCvCCCvvvvvvcciq<<>*-;-;-,,-;;;;;,,,,,,,@;;;-;***&*",
"&&&&&&&&&*$ywqqypizczmcipt5<>>><-&-&&**-***;-------;,@&*&*******",
"&&&&&&&&&O@>qqqq5q555555q54q><<@O&%&&&*&&******-;;;;#@O%&&*-&&&&"
};
