/* XPM */
static char *_0916496cbf4436fe3766a42c18840f6dUgGujrIAyDYRBEn[] = {
/* columns rows colors chars-per-pixel */
"64 64 96 2 ",
"   c #172C1A",
".  c #182E1C",
"X  c #17341D",
"o  c #19331E",
"O  c #15391F",
"+  c #18381F",
"@  c #1D3621",
"#  c #163D21",
"$  c #1D3C23",
"%  c #203B25",
"&  c #243E29",
"*  c #174123",
"=  c #1A4425",
"-  c #1A4827",
";  c #1C4628",
":  c #1D4B2A",
">  c #1E512D",
",  c #1F5E32",
"<  c #214027",
"1  c #23432A",
"2  c #29442E",
"3  c #224C2D",
"4  c #294B2F",
"5  c #21522F",
"6  c #264E30",
"7  c #2A4D32",
"8  c #245531",
"9  c #2A5434",
"0  c #265934",
"q  c #295A36",
"w  c #2F5538",
"e  c #2D5D39",
"r  c #305937",
"t  c #31553A",
"y  c #335C3C",
"u  c #226135",
"i  c #286036",
"p  c #276338",
"a  c #2D623B",
"s  c #2D693E",
"d  c #32633D",
"f  c #35693F",
"g  c #365E41",
"h  c #395D42",
"j  c #2E6B40",
"k  c #356541",
"l  c #396641",
"z  c #3B6445",
"x  c #376841",
"c  c #366A41",
"v  c #346A42",
"b  c #366C43",
"n  c #366E44",
"m  c #396843",
"M  c #386943",
"N  c #386B44",
"B  c #396B44",
"V  c #3E6B46",
"C  c #3A6C44",
"Z  c #3B6F47",
"A  c #3C6E47",
"S  c #3E6648",
"D  c #3E6B48",
"F  c #3E6F48",
"G  c #357146",
"H  c #397042",
"J  c #3E7047",
"K  c #377549",
"L  c #3C7048",
"P  c #3F7048",
"I  c #3F754B",
"U  c #406147",
"Y  c #406649",
"T  c #406E48",
"R  c #436B4C",
"E  c #486A4F",
"W  c #407049",
"Q  c #43714A",
"!  c #40744B",
"~  c #43754C",
"^  c #44744C",
"/  c #45774E",
"(  c #47784F",
")  c #476F50",
"_  c #496F51",
"`  c #477251",
"'  c #4B7253",
"]  c #477A50",
"[  c #497A51",
"{  c #4A7C51",
"}  c #4F7857",
"|  c #4B7F55",
" . c #4C7D54",
".. c #507557",
"X. c #507758",
"o. c #507A58",
/* pixels */
"& w y d l l l m m l l c c k d d d y r 7 % % 9 w w 9 9 7 7 7 1 3 4 7 9 w 9 7 3 7 7 w & y R W R W R R R R T A V V l l c y 9 7 1 % ",
"9 e a d c c b n d d d e q e d 0 e d e 0 0 1 8 8 8 0 0 q i q q 8 0 0 0 0 0 8 5 0 q > : f f f H m A J J J J J P A C B c d a q 0 q ",
"q I P P P P P ! W A F P A A B B m q c c 5 3 0 q q q e a e a a a a a a e a e e q i e : ~ | [ [  . .{ [ ( ( ^ ( ~ P A C m c d d 8 ",
"e A A P A F A A A A C A A B B B B c m c 8 : 8 0 0 q q q q e e e a e e e e a q q i q ; ! [ [ [ [ { [ [ ( ^ ^ W ! F A B c c d d 8 ",
"q C P B A C C B c C C C B B m C c c c d q ; 8 8 5 0 0 q q q q q q q q q q q q q 0 0 ; ~ ^ ] ( ] ] ( ^ ^ ^ W P F A C m c d d 8 3 ",
"q m m B C C m m m m d d d d d e d d k d e $ 5 8 5 8 8 8 0 q 0 0 0 0 8 0 0 0 0 0 0 0 ; W ~ ~ W ^ ^ ^ ^ ~ ~ P P A C C c d 9 9 8 @ ",
"8 c c m m c d d d d d y y y e w w e w e e $ > 5 5 8 5 8 8 5 8 8 0 8 8 8 0 8 0 8 8 0 = W W W T W W A W P ! B A C m d 9 0 3 9 m y ",
"5 d d d y e y d d e w w w w w e 9 q q 9 9 % > : : ; ; ; : ; : 5 5 8 8 8 8 0 8 8 8 8 $ A F W W A V m d l A C m y e 9 3 7 e d d 0 ",
"3 e e e e e e e w e e 9 q q 9 9 9 9 q 8 8 $ : * * * * ; * ; ; ; ; : : 3 8 8 5 3 3 : $ e y d y y r 9 9 9 9 9 9 e 0 $ 8 q a d d 5 ",
"$ 0 q e q q e q 9 q 9 0 8 9 q 0 9 8 8 6 - $ - * * * * * * * * : ; ; ; ; : : > : : - % 0 e 9 e e 9 9 9 9 9 9 0 0 $ 5 8 q 8 8 8 3 ",
"& & & < $ = $ 1 & $ @ @ $ $ @ $ $ @ @ % & & @ @ @ $ @ $ $ @ @ @ @ @ @ $ $ $ @ @ $ $ & $ $ @ @ @ @ $ $ $ $ $ = @ @ @ @ $ @ @ @ & ",
"0 5 > > > > > 8 8 q 3 1 a a c c c m d d c B m m m m c c d e a 9 d m c m f f d d d d d d d a d c c d d y y 1 q 8 0 q q a e w e q ",
"q q q q 0 0 0 0 8 : 8 5 q e a a q a b C C m c d d e q 0 8 5 5 5 a a f W W W W P J P A C c B c d d a e q 8 3 0 q q q q q e q q q ",
"0 0 0 0 0 8 8 8 8 8 ; 8 i e e d d d d c c c c c c c c d d d e 5 a B J P P J C J C J B f b c d d d e q q 8 $ 8 0 0 0 0 0 0 q q q ",
"0 0 0 0 8 0 8 0 8 5 = 8 0 q q e e d d d d d d d k d d d a e q 3 q B C C C J B m B C m d d d d a a e q 0 8 $ 5 8 8 8 8 8 8 8 8 8 ",
"0 0 8 8 8 8 8 8 8 5 = 8 0 0 0 q a a a d a d d d a a a e q q q ; d C B C c B m m b c c c d d e e e q 0 8 : $ 8 5 5 8 8 8 8 8 8 8 ",
"8 5 8 5 > 5 5 8 8 : $ 5 8 8 8 0 q q q q a a e e e e q i q 0 q $ d c c c c c d c d d d c d a e e q 0 3 3 : $ > 5 5 8 8 8 8 5 5 5 ",
": : : : > > : : ; - ; 3 5 8 8 8 8 q 0 e q q q q e q e 8 8 8 5 $ e d d d d d d c d d d a q q q q 8 3 3 : : $ : 3 5 > 5 5 5 3 : : ",
"- - ; ; : ; ; ; ; ; $ : 3 5 5 8 8 8 8 8 8 8 0 0 0 3 8 5 3 : 3 = q e e e a d d a a d a a q q q 5 3 : : - ; % : : ; : : : : : : : ",
"; ; ; ; ; ; ; = * - % : : 3 5 : 3 3 5 8 8 8 8 : 3 3 3 3 3 3 : $ 8 a 0 q q q q q 8 8 8 8 8 3 3 3 : : ; - @ % ; ; ; ; ; ; ; ; ; ; ",
"; - ; ; ; ; : - - @ 1 # - : : > : 5 : : : > : : : : : - : - ; $ ; q 8 q 5 8 8 8 5 5 3 8 5 > : : : - - : $ @ - - - - - ; ; : ; ; ",
"$ 1 3 1 1 1 1 3 1 1 3 1 @ o   o 9 9 7 1     . @ @ @ @ $ $ $ & 1 1 @ @ . . .   o o @ . . . o o @ @ @ $ % 1 1 1 1 1 & % $ @ @ @ @ ",
"q 8 8 0 8 q q 0 q 8 5 > > > q 1 5 0 q 0 8 & 8 : - : : - : : > - : - 5 q q 9 3 1 & % @ a q q 0 q 0 q q q q q e q 8 8 5 e w 9 3 & ",
"8 d d c c c B b c c c B B c e 8 1 5 e e e $ 0 e e e e e e d e e e q q 8 : 8 8 8 8 0 & q e e e a a a a a a e e e e 8 8 8 > 5 8 1 ",
"8 d d c d c c d n c c c c c c d : 1 > 3 6 % q q w w e e q e e w e q e q q 8 : - - - & q q q q e e q e e e e e q e q q e q 0 : : ",
"5 a d d d d d d k k k d k k d y d : 1 ; * $ e e q q e q q q q q q q e q q q 8 8 5 : $ 8 0 0 q q q q q q q q q q q 0 0 8 8 9 8 ; ",
": q a e e a d d d d d k c d d y k d 5 : # $ 9 9 9 q 8 9 q q 0 9 q q q 8 8 5 8 8 5 5 ; : q 8 8 0 0 0 0 0 8 0 0 0 8 0 8 8 8 8 8 ; ",
"; 3 8 e a a e d e y d d d w 9 6 6 6 w e : $ 0 8 q 0 9 q 9 e 9 8 8 3 8 3 3 : 3 : : 5 $ ; : 5 5 0 8 8 8 8 8 8 8 8 8 8 5 0 0 8 8 = ",
"= > 3 3 0 a e e e e 9 6 6 6 6 3 3 3 3 3 q $ 8 8 0 8 8 8 8 5 5 3 3 3 5 3 3 5 : : : : = ; * * * : 8 8 5 8 8 8 8 8 8 5 8 5 8 3 3 ; ",
"$ - 3 3 3 3 8 3 3 3 3 3 3 3 3 3 3 3 3 1 1 $ 3 3 3 3 3 8 8 3 8 3 3 3 ; : : : : : : : $ ; * # $ * * * * ; : 5 8 8 8 5 8 5 3 5 : $ ",
"% - 3 3 3 3 3 3 3 3 3 3 3 3 1 1 3 3 3 1 1 1 : : : 3 : 3 3 : 5 : - : ; : : : ; : ; ; $ : ; # # * # # * * # * * * * ; ; ; * * ; $ ",
"% # - ; ; : : : ; ; : : ; ; ; ; = ; ; ; # @ * * * # O * + # X X o o o + # # * * * * @ @ # # * ; * ; * * * * * * * ; * # # # o & ",
"_ ' ' ' _ _ R R h & % a e 0 q q e a d y y y e e 9 7 1 & % % $ % 2 D S Y S R R R R R Y S S z z g z h h 7 @ $ U R E E R _ ' _ ' _ ",
"_ E ) ) E E R R R U 1 8 a c B B B C C m B B c c e 0 8 q q e q 3 t y S S S R S R S S z z z g y y y y w 9 6 2 S R E R E E E E _ E ",
"' ' ' ' ' ' ' _ E z 1 a k c c l z B C B B A F B B F F m a q : 3 w S D S S R R R R R R D S S S z z z k y 9 2 R E E E ) _ _ _ _ ' ",
"^ ' ' _ ' ) ` E E S ; d d c d k c l l B l B C C C F l B B c c ; y S S S S R D S S S S z S z z z l d y y w 1 R R R R R E E ' E E ",
"E ) E R R ` R E R S = d k k d k d c m k c B B P C B C B B c c ; y z k z z S S z z z z z k g k k y r w w 9 1 S R S R R R R E R E ",
"R R R R E R R R S z = d d d k k k k c d c c c B c c B c c c k $ 9 y k k z z l z z k k k k y y r y w w 9 8 1 z S S S R R R R R R ",
"R W Y S z h h y g g 1 y y d d d d k c c c c c c c c k c c d k $ 7 7 9 9 7 7 r k r y d y d y y w e e 9 9 8 1 z z D z S Y S S Y R ",
"h y y y y y y y g y 1 w y y d d d d d y y e 9 w 9 9 c k d d d $ 3 3 6 9 6 6 6 7 w y y y w e w w w 0 9 3 ; 1 y y z z z z z z S S ",
"y y t t t t t t y t 1 9 9 9 q 9 9 9 9 9 9 9 9 e 9 9 7 w d d e $ 3 1 1 3 3 3 3 3 3 3 w w 9 9 9 8 8 3 3 ; ; 1 y t t y g z g g y y ",
"t y y t t t w t w 9 1 : 9 9 9 9 9 9 9 9 6 9 9 7 7 7 9 7 9 9 9 $ ; * : : 3 1 1 1 1 1 1 3 3 3 3 : ; ; ; ; X @ 9 9 w w w t t t t w ",
"& 1 7 6 3 1 & $ & $ & X X X # # # * ; * * * $ * * : = $ # # . & % % $ o . o o o o o @ o $ = 1 1 1 $ @ @ % $ % @ $ $ % 1 & $ & $ ",
"6 s p s j s s s s j c j c j c c j j j j 8 6 d d 8 0 0 i q e e e y d d e q 8 5 5 0 w < 8 8 5 5 8 8 q e e e q 0 8 8 8 0 8 8 8 3 % ",
"8 p p s s s s s j s s s s p u u 0 , u , 0 q 8 a d d d a d c e d a e e e q q 0 8 0 : 3 8 0 q q q q q q e 0 q q q 8 : : : : : : ; ",
"0 c c c c c G K G n G G G G G G n b G j 0 5 8 a d e e e a a a a q e a q 0 8 8 5 5 5 - 8 8 8 0 0 q q q q q q q q 0 q q 8 q q q ; ",
"5 s c c c c c v n v n G c n n n n G G c s : e e q e e a e a e e e q q 0 0 5 8 > 5 5 - 5 5 8 5 8 0 8 0 0 0 8 0 0 0 0 q q 9 0 9 : ",
"5 a s s s a c v n v c c v c v v c c s s i 3 q q q e q q q q q q 0 0 0 8 5 8 5 5 > > : : 5 5 5 8 8 8 8 8 8 8 8 8 8 8 0 0 q 8 0 ; ",
"; i a s a s c c c a c c c c j j s s p a i : 0 0 0 0 0 q 0 8 8 8 8 8 0 8 8 : 5 > : : : * * * : : 5 5 8 5 5 8 8 5 5 8 8 8 8 0 8 ; ",
"= i i a a a a a a f c a e q 0 8 8 q a a i ; 8 8 0 0 8 8 8 8 8 3 : : ; ; ; ; > : : > : * * * * * * : 5 5 5 8 8 8 3 8 5 8 8 5 = * ",
"$ q e i i i e 0 8 8 8 8 8 8 8 5 8 5 5 8 5 $ : 3 : : ; ; = ; ; ; : ; ; * ; * * : : : - * # # # # # * # * 3 5 5 5 5 5 8 5 3 $ * * ",
"$ 0 q 5 5 5 8 8 5 5 3 3 3 3 3 : 3 3 3 > $ $ * ; * * * * * ; * ; ; * - * # * * * # * ; * # # O # # # # # # # # # # * * $ # * - $ ",
"& : > : : : : : 5 3 : 3 5 3 3 : : 3 5 > $ $ ; * ; - - - ; : : ; ; * - : - ; * # # # # * # # # # O O # O # # # # O # * ; ; ; * $ ",
"y r 9 9 9 7 7 3 1 o @ % 1 1 & 2 7 2 2 & & % . < 1 & 1 2 2 1 % @ @ < % $ @ @ @ @ @ . & 1 1 1 1 1 1 1 1 1 1 @ % 1 1 7 7 9 9 9 r y ",
"0 8 0 8 8 8 > 5 5 q & R R R ^ E R R R R R _ ' _ _ R ) R R R Y 2 5 a a a e q 8 8 8 a e q 0 0 0 0 0 0 0 q a 3 w 5 5 5 8 8 8 0 8 0 ",
"q q q q q q 8 8 5 : 3 ' ..X.o.X.' ....' ' E R S S z z y g g y 7 e d d d 0 5 5 3 8 5 q a d a d d d d d d d 5 5 0 q 0 q q q q q e ",
"q 0 8 0 0 8 8 8 8 > : ' ' ' ' } ' ' ' ' ' _ E ) E R R D R S z 1 5 8 8 5 5 3 : > 0 q e e a e a d d d d d d 3 8 8 8 0 q 0 0 q q q ",
"8 8 8 8 8 8 5 8 > > : E ' ' ' ' ' ' ' ' _ E R E R Y D S S z z & = = ; ; : > 8 0 0 q q q e q e e e a e e e : 5 8 8 8 8 8 8 8 8 0 ",
"8 8 > 5 : 5 : > > : = R E _ ) E E ' E E E E R R R R S S z z k 1 : > : > > 5 8 8 8 0 q q q q q 8 q 8 8 0 8 : 5 5 5 8 5 8 8 8 8 5 ",
"5 5 > > : : : : : : < R R R R R E E R R R R R R S S S z k k g 3 : : : : > > 5 8 8 8 0 0 5 5 5 5 3 8 5 8 5 ; > 5 5 5 5 5 > : > 5 ",
"> : : - - - : : : : & h R R R R R R R R R R S z S z g g g y y 1 : - : : : > > > 5 8 5 : : : 3 3 3 3 3 3 3 < : > > > : > : > > : ",
"; ; ; ; ; * * ; ; * 1 t y S Y S S R D z S z z z z z k y 9 6 3 1 ; - - : - : > : : - : : : : : : : : : : : % : - ; : : ; ; ; * ; ",
"* * * * * * * * * ; & t t t 9 t y y g z h z z y g y 6 3 1 1 1 3 : * - * * ; ; - ; * ; - ; ; ; ; ; ; ; : : % * ; * * ; * ; ; ; ; ",
"* * * * * * * * * @ % 1 9 9 9 9 9 9 7 7 7 7 7 7 9 7 6 6 1 1 6 $ # * * * * ; ; ; ; ; ; ; ; ; - - - : : : $ % $ * * * ; - ; ; * * "
};
