/* XPM */
static char *_d6b30771f894f79a2c43cc2104c2928OOR7XMjW90cuK6vN[] = {
/* columns rows colors chars-per-pixel */
"64 64 90 1 ",
"  c #3C0F0C",
". c #3E100D",
"X c #460E0B",
"o c #4D0D0A",
"O c #540E0B",
"+ c #5A0F0C",
"@ c #44120E",
"# c #4C120E",
"$ c #55110E",
"% c #5C110E",
"& c #471410",
"* c #4B1511",
"= c #4E1813",
"- c #531512",
"; c #5D1512",
": c #541915",
"> c #5C1915",
", c #561D19",
"< c #5D1D18",
"1 c #600F0B",
"2 c #62120E",
"3 c #68130F",
"4 c #74150F",
"5 c #641512",
"6 c #691613",
"7 c #641915",
"8 c #6C1916",
"9 c #641D19",
"0 c #6D1D19",
"q c #751610",
"w c #711A16",
"e c #7A1C16",
"r c #721E1A",
"t c #7C1F19",
"y c #5C201B",
"u c #66211B",
"i c #6C221D",
"p c #74211E",
"a c #7B221E",
"s c #6E2620",
"d c #6F2822",
"f c #6F2E28",
"g c #752521",
"h c #7A2522",
"j c #752924",
"k c #792925",
"l c #7E2825",
"z c #7C2A26",
"x c #7F2A27",
"c c #7C2E29",
"v c #77312C",
"b c #7E312B",
"n c #7D3630",
"m c #81231D",
"M c #802523",
"N c #812726",
"B c #882621",
"V c #822826",
"C c #852926",
"Z c #8A2A24",
"A c #822B28",
"S c #842A28",
"D c #832D2A",
"F c #852E2B",
"G c #832F2C",
"H c #872F2D",
"J c #8A2F2C",
"K c #8D2F2D",
"L c #83302C",
"P c #82332D",
"I c #85312D",
"U c #87302D",
"Y c #87332F",
"T c #8B312F",
"R c #873330",
"E c #843731",
"W c #8A3330",
"Q c #8A3331",
"! c #8D3230",
"~ c #8D3432",
"^ c #8E3634",
"/ c #853933",
"( c #893B35",
") c #8B3E38",
"_ c #913735",
"` c #913837",
"' c #923A38",
"] c #953B3A",
"[ c #8D403A",
"{ c #90403B",
/* pixels */
"-igklllllkkkkkkkhgi9**uiiiu999<<<9ii09<99i*jUTUQRUUUUPGDclkgi9:*",
"iphlVVVClhhprph8phpw0>8888wrrrr88wwww86ww5;MNVSSFJJJHJJHFAVlarw0",
"rKHUTTJTUHHHHFDDlrhl8;wrrrrappaappppprprpp5~]``]]''^^~~!THFllhh0",
"pFFJHHHHHHDDDDDAVlVV8;80wrrrrrpraprpparrrr%!```''``^^~QTHFAllhh7",
"0FFDDDDDADDFDAlVllhhr;88880rrrrrrrrrrr0r08%~^____^^~~QTTHFVlhh8;",
"rlAAASAAAlhgghgphglhr$6688888r8rr0800r8888$Q~~Q~~~~!!TTHFSlh097&",
"8lllVlhggghgppipiprpp*5666688688w888888888-TQQUQQUQTTDFFVh00>uDg",
"7hgggppggpip000000088*322%%%%%%56688888888-HTTTTDljlFDVg00>9plh0",
";pppppppr0p0000000077*2OOOO$O%%%%%%5865555*pggggsiiii0000-8rahh7",
"*w00r0r00008800887772*2OOOOOOO$%%%%%%%5;5+*r000r0900090w*6800887",
"***---*:**&&*****&&*:*&@@*@**&@@@#&&**&@*****&&@&****--*@##&@@&*",
"866566668r>:aaMVllhlNVVVVlllgpa0jAVVVNhhlllhhahMlhhpp:r8wrrpprrr",
"r0rrr0ww8276rpgpraVVSVlhhprw8666ahVTT!QQTJHFVVlllgrr8>0rrrrrr0rr",
"0008888886%8rrphlhhllllVllhhhgp6aAHTJJFJFFAlVllhhprr8*8800rrrrrr",
"w888888866$6rrrppghhhhhllhhhppr5rAFFFFAAASAhllhhppr06*6888888888",
"ww88886886$888rrapahphhhaphpr0r$hSSSVVAAAVhhllpprrr85*8666888888",
"8685556665$68880rrrrappppprrr00$hllVVVhVhhlMhaprr0552*5566886665",
"%%525555%%-566888r0rrrrrrrr8667#phhlhhlNlhharrrr85552*255555552%",
"%%%%2%%%%+*%55688888888885855;5-r0rrpllhhhparrr65;%%%*%%%%2%%%%%",
"%%%++OOOO+*%%5555556688;55555;;*8r00r00088878555;%%%@*%%%%%%%%%%",
"+%%+++2++#:o%%%5%55;55%%%%%%22+*;08078886656555222%2**%%%%%+%2%+",
"*:>:::>>::>:&@ @909:. .&@&*****>:&@... @@@@..@@&&***:::::=**&&&&",
"r8888ww8w66555r>60r08-8222222232225r007:***arrwr0rrrrrrr866rr07*",
"8hllhlVVllllVlr6-8ppp*8ppppppappp008288888*rrrpppppappprr886555:",
"8ghNhllhVlklhhlg5-257*00pppp0pppp0rrr022+2-rrrrrrrppppp0rrrr002;",
"5phhhhhgllhhhhhgg5;%$*rr00p000r000r0008852-888rrrrrrrr0rr008808%",
"2rpppphhghhllhgghh6%#*0000000000r008878855-%w888880r80888888888%",
"%57pappapghggp0977pp2-r000000r0877655;;555$%2668888888888888888$",
"$5;78pppp097777>>>>>0*88888876555555;5%;55$+OO$;685886888787855$",
"*27>7777>>>>>7>>>>>>;#;5;;;55555;5;;;;%%%%$+OOOOO$$%5568877555%$",
"*2;>;>>;>>>>>7>;;>>-;-;;;5;;;;52%%%%%%%%%$#2+OOOOOOOO$$$$%%%$$%*",
"*#%%%2%%%%%%%%%%%%%%$&$$$Oo$XoXXXoXXoOOOOO&@#$$%$%O$O$$%O+OOo#@*",
"/)(((/Enf:*pp8rrpappgpppi9:*****<bbbbUUPbbbbcjjjjjju&*vEEEE/(/((",
"////EEEPPv:6gllAAFFlllllp08rrpr>igccbbbbbbcccjggppi0<,cbPPEEE//E",
"(((((/(/Ev;phhlllAFADDDDDFDVpw27icbcbPPPbPPbbcccjjjg0,PP/E////((",
"E((/(/(/Eb-ghlhhlllllDFADFlDAll%pcccbbbccccccckjkjgpi:bbPPP/E(E/",
"EEEPPQPUPb-ghhhhhllhlVASSASllkl%gcjccccjcjkkjjjjgipii:bPbPPbEEEE",
"PPPPUPPPcj-hhhhhhkkglhlllllllhh$9gjkklkkkkkjjggpgpp00:cbccbPPbPP",
"PUbckjjsgj-ggghhhhlhklllllhhlhk#990099ijgggggpppppi08:jjccbbbbbb",
"jddssssigi:igghgghggpi0i00lhhgh*>>>97779pgppiiiip00;%:igccccjcbb",
"isiiiiiiii:9000990999990099iggp*;>;>>>>>>>ii009777;;+:iiiijcjgii",
"iiiiuiuuuu:59990999990999999997*%$22;>>>;>;;;;;;%%%+X*uuuuuiiiiu",
"*:9>>:-****@XXo#OO%$O$$%$%$$##.****@@@@@@@#@-----*@&***&***:****",
"7tetmtmmammmmmmmmmmm79ha8wwtrpppphhpr8668r-888688rrpp088888887>*",
"wettttammmmmteeqq4q4q08ahhhghlphppprrrr882;8wrrrrrrr8rrr6222222%",
"8mmMBMCZCCCCCZCCCBBmq88phppphpaarrarr88665%8880rrrrrrrrr0r00000%",
"5aamMMmMBMCCMBMBBBBma5pprppapaprrrr0w68555%66888888008888000000%",
"5aaaaammBmMMMMMMmaaar5rrrrrrrrrrr088666555%26666888888888880r80%",
"$aaaaaaMMaMaaaaaaaaar;8000rr888888w8655652%OOO%5666658878888887%",
"-rtaaaaaaaapr0088raat$888888888555%%%%5225%OOOOOO%555688585877$$",
"*rrrrrr88777788775585$;5;5;%$%$$%%$$%OO222%OOOOOOOO$555555755$$$",
"*ww5555655;5555555;6$#$$$$$$$%%+++%OOOOOOO%OooooOoOoooOOO$$$OO2#",
"*25525555555555;;552**%%%22%%22%%+%2++OOOOoOoooooooooooooOO+++O*",
"giii999<>@&*,::,yy,:=*@:,:,,,,*@@-****&*&.*::::::::::&*>>999iipg",
"w88888566r*PPUQUPPPPP/(//P/PPPb,9aaapr089arrwwr0r0rra<r66688808w",
"rrrrrr08627)[[{[)[[(/Ebbcckjjgpyphhh076586rphghhllhhl760rrrrrrrr",
"rr80888665%())))))(((///EPbbbck:788785568rppppphhhhhh58888r000rr",
"88888866555E((((()(///PEPbPccck:--$%268rrrrrrrrpppppp;6688888888",
"8856555552-EE////(/EEEPPPbbcckj:2226568880rrrr080888855666666886",
"5655555222-PPEEEEEPPPPbbccccjjg>2222556w8888555666776-5555556556",
"522%%%2222-jPPbbPPPbPPccccjjjgi:222222556655;55555555-2555555555",
"+++++OOO+O:isbbcbPPccccjkjkg9>>>+%2222222%%%%%5;;;;;;*2%%2%%%%O%",
"OOOOOOOOO+=iuuuuisjjjkkgji<>>>>>1O+OO++%+++%%%%%%%%%2*$+OO++++O+",
"OOOOO+OOO&*>uuuuuu9999999977>>7*#OOOOO%%+%%%%%%%%%%2-*#OOO%%+OOO"
};
